{"title":"Cam2Cam.2014.WEBRip.RR","uid":10860141,"size":921530814,"categoryP":"video","categoryS":"movies","magnet":"?xt=urn:btih:f7280394b8b96e83bf12373007c3052a7b947bd0&amp;dn=Cam2Cam.2014.WEBRip.RR&amp;tr=udp%3A%2F%2Ftracker.openbittorrent.com%3A80&amp;tr=udp%3A%2F%2Fopen.demonii.com%3A1337&amp;tr=udp%3A%2F%2Ftracker.coppersurfer.tk%3A6969&amp;tr=udp%3A%2F%2Fexodus.desync.com%3A6969","seeders":1,"leechers":1,"uploader":"xxxlavalxxx","files":-1,"time":1408880893,"description":"[IMG]http://i.imgur.com/R1LWidp.jpg[/IMG]\n\n &lt;a href=&quot;\nhttp://www.imdb.com/title/tt2469760/&quot; rel=&quot;nofollow&quot; target=&quot;_NEW&quot;&gt;\nhttp://www.imdb.com/title/tt2469760/&lt;/a&gt;\n\n\nAn American tourist in Bangkok encounters a mysterious group of web performers harboring a terrible secret.\n\nDirector: Joel Soisson\nWriters: Marie Gautier (original story), Davy Sihali (original story)\nStars: Tammin Sursok, Ben Wiggins, Sarah Bonrepaux\nGenres: Horror,Thriller\nCountry: USA | Thailand | Austria\nLanguage: English\n\n\nGeneral\nComplete name                            : C:UsersHomeDesktopDownloadsCam2Cam.2014.WEBRip.RR.avi\nFormat                                   : AVI\nFormat/Info                              : Audio Video Interleave\nFile size                                : 879 MiB\nDuration                                 : 1h 30mn\nOverall bit rate                         : 1 352 Kbps\nWriting library                          : VirtualDub build 35491/release\n\nVideo\nID                                       : 0\nFormat                                   : MPEG-4 Visual\nFormat profile                           : Advanced Simple@L5\nFormat settings, BVOP                    : 2\nFormat settings, QPel                    : No\nFormat settings, GMC                     : No warppoints\nFormat settings, Matrix                  : Default (H.263)\nMuxing mode                              : Packed bitstream\nCodec ID                                 : XVID\nCodec ID/Hint                            : XviD\nDuration                                 : 1h 30mn\nBit rate                                 : 1 148 Kbps\nWidth                                    : 640 pixels\nHeight                                   : 360 pixels\nDisplay aspect ratio                     : 16:9\nFrame rate                               : 29.970 fps\nColor space                              : YUV\nChroma subsampling                       : 4:2:0\nBit depth                                : 8 bits\nScan type                                : Progressive\nCompression mode                         : Lossy\nBits/(Pixel*Frame)                       : 0.166\nStream size                              : 747 MiB (85%)\nWriting library                          : XviD 64\n\nAudio\nID                                       : 1\nFormat                                   : MPEG Audio\nFormat version                           : Version 1\nFormat profile                           : Layer 3\nMode                                     : Joint stereo\nCodec ID                                 : 55\nCodec ID/Hint                            : MP3\nDuration                                 : 1h 30mn\nBit rate mode                            : Constant\nBit rate                                 : 192 Kbps\nChannel(s)                               : 2 channels\nSampling rate                            : 44.1 KHz\nCompression mode                         : Lossy\nStream size                              : 125 MiB (14%)\nAlignment                                : Split accross interleaves\nInterleave, duration                     : 33 ms (1.00 video frame)\nInterleave, preload duration             : 500 ms\n\n\nscreens\n &lt;a href=&quot;\nhttp://i.imgur.com/rwGTg1y.png&quot; rel=&quot;nofollow&quot; target=&quot;_NEW&quot;&gt;\nhttp://i.imgur.com/rwGTg1y.png&lt;/a&gt; &lt;a href=&quot;\nhttp://i.imgur.com/FquXyPh.png&quot; rel=&quot;nofollow&quot; target=&quot;_NEW&quot;&gt;\nhttp://i.imgur.com/FquXyPh.png&lt;/a&gt; &lt;a href=&quot;\nhttp://i.imgur.com/t2uoyAd.png&quot; rel=&quot;nofollow&quot; target=&quot;_NEW&quot;&gt;\nhttp://i.imgur.com/t2uoyAd.png&lt;/a&gt; &lt;a href=&quot;\nhttp://i.imgur.com/CZ70NFc.png&quot; rel=&quot;nofollow&quot; target=&quot;_NEW&quot;&gt;\nhttp://i.imgur.com/CZ70NFc.png&lt;/a&gt; &lt;a href=&quot;\nhttp://i.imgur.com/xWeB4W6.png&quot; rel=&quot;nofollow&quot; target=&quot;_NEW&quot;&gt;\nhttp://i.imgur.com/xWeB4W6.png&lt;/a&gt;","torrent":{"xt":"urn:btih:f7280394b8b96e83bf12373007c3052a7b947bd0","amp;dn":"Cam2Cam.2014.WEBRip.RR","amp;tr":["udp%3A%2F%2Ftracker.openbittorrent.com%3A80","udp%3A%2F%2Fopen.demonii.com%3A1337","udp%3A%2F%2Ftracker.coppersurfer.tk%3A6969","udp%3A%2F%2Fexodus.desync.com%3A6969"],"infoHash":"f7280394b8b96e83bf12373007c3052a7b947bd0","infoHashBuffer":{"type":"Buffer","data":[247,40,3,148,184,185,110,131,191,18,55,48,7,195,5,42,123,148,123,208]},"announce":[],"urlList":[]}}